<?xml version="1.0" encoding="UTF-8" standalone="no"?>
<!DOCTYPE svg PUBLIC "-//W3C//DTD SVG 1.0//EN" "http://www.w3.org/TR/2001/PR-SVG-20010719/DTD/svg10.dtd">
<svg width="70cm" height="57cm" viewBox="19 -87 1386 1139" xmlns="http://www.w3.org/2000/svg" xmlns:xlink="http://www.w3.org/1999/xlink">
  <g>
    <rect style="fill: #ffffff" x="400" y="109" width="410.4" height="28"/>
    <rect style="fill: none; fill-opacity:0; stroke-width: 2; stroke: #000000" x="400" y="109" width="410.4" height="28"/>
    <text style="fill: #000000;text-anchor:middle;font-size:16;font-family:sanserif;font-style:normal;font-weight:700" x="605.2" y="128">SQLContainer</text>
    <rect style="fill: #ffffff" x="400" y="137" width="410.4" height="180"/>
    <rect style="fill: none; fill-opacity:0; stroke-width: 2; stroke: #000000" x="400" y="137" width="410.4" height="180"/>
    <text style="fill: #000000;text-anchor:start;font-size:12.8;font-family:monospace;font-style:normal;font-weight:normal" x="403" y="151">+refresh(): void</text>
    <text style="fill: #000000;text-anchor:start;font-size:12.8;font-family:monospace;font-style:normal;font-weight:normal" x="403" y="167">+setAutoCommit(autoCommitEnabled:boolean): void</text>
    <text style="fill: #000000;text-anchor:start;font-size:12.8;font-family:monospace;font-style:normal;font-weight:normal" x="403" y="183">+isAutoCommit(): boolean</text>
    <text style="fill: #000000;text-anchor:start;font-size:12.8;font-family:monospace;font-style:normal;font-weight:normal" x="403" y="199">+setPageLength(pageLength:int): void</text>
    <text style="fill: #000000;text-anchor:start;font-size:12.8;font-family:monospace;font-style:normal;font-weight:normal" x="403" y="215">+getPageLength(): void</text>
    <text style="fill: #000000;text-anchor:start;font-size:12.8;font-family:monospace;font-style:normal;font-weight:normal" x="403" y="231">+commit(): void</text>
    <text style="fill: #000000;text-anchor:start;font-size:12.8;font-family:monospace;font-style:normal;font-weight:normal" x="403" y="247">+rollback(): void</text>
    <text style="fill: #000000;text-anchor:start;font-size:12.8;font-family:monospace;font-style:normal;font-weight:normal" x="403" y="263">+addFilter(filter:Filter): void</text>
    <text style="fill: #000000;text-anchor:start;font-size:12.8;font-family:monospace;font-style:normal;font-weight:normal" x="403" y="279">+addOrderBy(orderBy:OrderBy): void</text>
    <text style="fill: #000000;text-anchor:start;font-size:12.8;font-family:monospace;font-style:normal;font-weight:normal" x="403" y="295">+setFilteringMode(filteringMode:FilteringMode): void</text>
    <text style="fill: #000000;text-anchor:start;font-size:12.8;font-family:monospace;font-style:normal;font-weight:normal" x="403" y="311">+isModified(): boolean</text>
  </g>
  <g>
    <rect style="fill: #ffffff" x="222" y="275" width="110.1" height="44"/>
    <rect style="fill: none; fill-opacity:0; stroke-width: 2; stroke: #000000" x="222" y="275" width="110.1" height="44"/>
    <text style="fill: #000000;text-anchor:middle;font-size:12.8;font-family:monospace;font-style:normal;font-weight:normal" x="277.05" y="291">&lt;&lt;interface&gt;&gt;</text>
    <text style="fill: #000000;text-anchor:middle;font-size:16;font-family:sanserif;font-style:normal;font-weight:700" x="277.05" y="310">Container</text>
  </g>
  <g>
    <rect style="fill: #ffffff" x="153" y="121" width="178.35" height="44"/>
    <rect style="fill: none; fill-opacity:0; stroke-width: 2; stroke: #000000" x="153" y="121" width="178.35" height="44"/>
    <text style="fill: #000000;text-anchor:middle;font-size:12.8;font-family:monospace;font-style:normal;font-weight:normal" x="242.175" y="137">&lt;&lt;interface&gt;&gt;</text>
    <text style="fill: #000000;text-anchor:middle;font-size:16;font-family:sanserif;font-style:normal;font-weight:700" x="242.175" y="156">Container.Ordered</text>
  </g>
  <g>
    <rect style="fill: #ffffff" x="142" y="71" width="191.3" height="44"/>
    <rect style="fill: none; fill-opacity:0; stroke-width: 2; stroke: #000000" x="142" y="71" width="191.3" height="44"/>
    <text style="fill: #000000;text-anchor:middle;font-size:12.8;font-family:monospace;font-style:normal;font-weight:normal" x="237.65" y="87">&lt;&lt;interface&gt;&gt;</text>
    <text style="fill: #000000;text-anchor:middle;font-size:16;font-family:sanserif;font-style:normal;font-weight:700" x="237.65" y="106">Container.Filterable</text>
  </g>
  <g>
    <rect style="fill: #ffffff" x="154" y="222" width="176.6" height="44"/>
    <rect style="fill: none; fill-opacity:0; stroke-width: 2; stroke: #000000" x="154" y="222" width="176.6" height="44"/>
    <text style="fill: #000000;text-anchor:middle;font-size:12.8;font-family:monospace;font-style:normal;font-weight:normal" x="242.3" y="238">&lt;&lt;interface&gt;&gt;</text>
    <text style="fill: #000000;text-anchor:middle;font-size:16;font-family:sanserif;font-style:normal;font-weight:700" x="242.3" y="257">Container.Indexed</text>
  </g>
  <g>
    <rect style="fill: #ffffff" x="150" y="171" width="181" height="44"/>
    <rect style="fill: none; fill-opacity:0; stroke-width: 2; stroke: #000000" x="150" y="171" width="181" height="44"/>
    <text style="fill: #000000;text-anchor:middle;font-size:12.8;font-family:monospace;font-style:normal;font-weight:normal" x="240.5" y="187">&lt;&lt;interface&gt;&gt;</text>
    <text style="fill: #000000;text-anchor:middle;font-size:16;font-family:sanserif;font-style:normal;font-weight:700" x="240.5" y="206">Container.Sortable</text>
  </g>
  <g>
    <rect style="fill: #ffffff" x="20" y="20" width="311.85" height="44"/>
    <rect style="fill: none; fill-opacity:0; stroke-width: 2; stroke: #000000" x="20" y="20" width="311.85" height="44"/>
    <text style="fill: #000000;text-anchor:middle;font-size:12.8;font-family:monospace;font-style:normal;font-weight:normal" x="175.925" y="36">&lt;&lt;interface&gt;&gt;</text>
    <text style="fill: #000000;text-anchor:middle;font-size:16;font-family:sanserif;font-style:normal;font-weight:700" x="175.925" y="55">Container.ItemSetChangeNotifier</text>
  </g>
  <g>
    <polyline style="fill: none; fill-opacity:0; stroke-width: 2; stroke-dasharray: 8; stroke: #000000" points="350.086,42 365.422,42 365.422,213 398.994,213 "/>
    <polygon style="fill: #ffffff" points="350.086,34 334.086,42 350.086,50 "/>
    <polygon style="fill: none; fill-opacity:0; stroke-width: 2; stroke: #000000" points="350.086,34 334.086,42 350.086,50 "/>
  </g>
  <g>
    <polyline style="fill: none; fill-opacity:0; stroke-width: 2; stroke-dasharray: 8; stroke: #000000" points="351.536,93 366.147,93 366.147,213 398.994,213 "/>
    <polygon style="fill: #ffffff" points="351.536,85 335.536,93 351.536,101 "/>
    <polygon style="fill: none; fill-opacity:0; stroke-width: 2; stroke: #000000" points="351.536,85 335.536,93 351.536,101 "/>
  </g>
  <g>
    <polyline style="fill: none; fill-opacity:0; stroke-width: 2; stroke-dasharray: 8; stroke: #000000" points="350.592,143 365.675,143 365.675,213 398.994,213 "/>
    <polygon style="fill: #ffffff" points="350.592,135 334.592,143 350.592,151 "/>
    <polygon style="fill: none; fill-opacity:0; stroke-width: 2; stroke: #000000" points="350.592,135 334.592,143 350.592,151 "/>
  </g>
  <g>
    <polyline style="fill: none; fill-opacity:0; stroke-width: 2; stroke-dasharray: 8; stroke: #000000" points="350.242,193 365.5,193 365.5,213 398.994,213 "/>
    <polygon style="fill: #ffffff" points="350.242,185 334.242,193 350.242,201 "/>
    <polygon style="fill: none; fill-opacity:0; stroke-width: 2; stroke: #000000" points="350.242,185 334.242,193 350.242,201 "/>
  </g>
  <g>
    <polyline style="fill: none; fill-opacity:0; stroke-width: 2; stroke-dasharray: 8; stroke: #000000" points="349.842,244 365.3,244 365.3,213 398.994,213 "/>
    <polygon style="fill: #ffffff" points="349.842,236 333.842,244 349.842,252 "/>
    <polygon style="fill: none; fill-opacity:0; stroke-width: 2; stroke: #000000" points="349.842,236 333.842,244 349.842,252 "/>
  </g>
  <g>
    <polyline style="fill: none; fill-opacity:0; stroke-width: 2; stroke-dasharray: 8; stroke: #000000" points="350.336,297 365.547,297 365.547,213 398.994,213 "/>
    <polygon style="fill: #ffffff" points="350.336,289 334.336,297 350.336,305 "/>
    <polygon style="fill: none; fill-opacity:0; stroke-width: 2; stroke: #000000" points="350.336,289 334.336,297 350.336,305 "/>
  </g>
  <g>
    <rect style="fill: #ffffff" x="494" y="-86" width="248.7" height="28"/>
    <rect style="fill: none; fill-opacity:0; stroke-width: 2; stroke: #000000" x="494" y="-86" width="248.7" height="28"/>
    <text style="fill: #000000;text-anchor:middle;font-size:16;font-family:sanserif;font-style:normal;font-weight:700" x="618.35" y="-67">Filter</text>
    <rect style="fill: #ffffff" x="494" y="-58" width="248.7" height="100"/>
    <rect style="fill: none; fill-opacity:0; stroke-width: 2; stroke: #000000" x="494" y="-58" width="248.7" height="100"/>
    <text style="fill: #000000;text-anchor:start;font-size:12.8;font-family:monospace;font-style:normal;font-weight:normal" x="497" y="-44">-column: String</text>
    <text style="fill: #000000;text-anchor:start;font-size:12.8;font-family:monospace;font-style:normal;font-weight:normal" x="497" y="-28">-value: Object</text>
    <text style="fill: #000000;text-anchor:start;font-size:12.8;font-family:monospace;font-style:normal;font-weight:normal" x="497" y="-12">-secondValue: Object</text>
    <text style="fill: #000000;text-anchor:start;font-size:12.8;font-family:monospace;font-style:normal;font-weight:normal" x="497" y="4">-comparisonType: ComparisonType</text>
    <text style="fill: #000000;text-anchor:start;font-size:12.8;font-family:monospace;font-style:normal;font-weight:normal" x="497" y="20">-isCaseSensitive: boolean</text>
    <text style="fill: #000000;text-anchor:start;font-size:12.8;font-family:monospace;font-style:normal;font-weight:normal" x="497" y="36">+needsQuotes: boolean</text>
  </g>
  <g>
    <rect style="fill: #ffffff" x="755" y="-34" width="171.7" height="28"/>
    <rect style="fill: none; fill-opacity:0; stroke-width: 2; stroke: #000000" x="755" y="-34" width="171.7" height="28"/>
    <text style="fill: #000000;text-anchor:middle;font-size:16;font-family:sanserif;font-style:normal;font-weight:700" x="840.85" y="-15">OrderBy</text>
    <rect style="fill: #ffffff" x="755" y="-6" width="171.7" height="36"/>
    <rect style="fill: none; fill-opacity:0; stroke-width: 2; stroke: #000000" x="755" y="-6" width="171.7" height="36"/>
    <text style="fill: #000000;text-anchor:start;font-size:12.8;font-family:monospace;font-style:normal;font-weight:normal" x="758" y="8">-column: String</text>
    <text style="fill: #000000;text-anchor:start;font-size:12.8;font-family:monospace;font-style:normal;font-weight:normal" x="758" y="24">-isAscending: boolean</text>
  </g>
  <g>
    <polyline style="fill: none; fill-opacity:0; stroke-width: 2; stroke: #000000" points="605.2,83.8284 605.2,64 618.35,64 618.35,42 "/>
    <polygon style="fill: #ffffff" points="605.2,109 600.4,95 605.2,81 610,95 "/>
    <polygon style="fill: none; fill-opacity:0; stroke-width: 2; stroke: #000000" points="605.2,109 600.4,95 605.2,81 610,95 "/>
    <text style="fill: #000000;text-anchor:middle;font-size:12.7998;font-family:monospace;font-style:normal;font-weight:normal" x="611.775" y="61"></text>
    <text style="fill: #000000;text-anchor:start;font-size:12.7998;font-family:monospace;font-style:normal;font-weight:normal" x="616.2" y="105"></text>
    <text style="fill: #000000;text-anchor:start;font-size:12.7998;font-family:monospace;font-style:normal;font-weight:normal" x="622.35" y="54">0..*</text>
  </g>
  <g>
    <polyline style="fill: none; fill-opacity:0; stroke-width: 2; stroke: #000000" points="605.2,83.8284 605.2,64 840.85,64 840.85,31.0081 "/>
    <polygon style="fill: #ffffff" points="605.2,109 600.4,95 605.2,81 610,95 "/>
    <polygon style="fill: none; fill-opacity:0; stroke-width: 2; stroke: #000000" points="605.2,109 600.4,95 605.2,81 610,95 "/>
    <text style="fill: #000000;text-anchor:middle;font-size:12.7998;font-family:monospace;font-style:normal;font-weight:normal" x="723.025" y="61"></text>
    <text style="fill: #000000;text-anchor:start;font-size:12.7998;font-family:monospace;font-style:normal;font-weight:normal" x="616.2" y="105"></text>
    <text style="fill: #000000;text-anchor:start;font-size:12.7998;font-family:monospace;font-style:normal;font-weight:normal" x="844.85" y="43.0081"> 0..*</text>
    <text style="fill: #000000;text-anchor:start;font-size:12.7998;font-family:monospace;font-style:normal;font-weight:normal" x="844.85" y="59.0081"></text>
  </g>
  <g>
    <rect style="fill: #ffffff" x="1026" y="138" width="233.3" height="28"/>
    <rect style="fill: none; fill-opacity:0; stroke-width: 2; stroke: #000000" x="1026" y="138" width="233.3" height="28"/>
    <text style="fill: #000000;text-anchor:middle;font-size:16;font-family:sanserif;font-style:normal;font-weight:700" x="1142.65" y="157">RowItem</text>
    <rect style="fill: #ffffff" x="1026" y="166" width="233.3" height="52"/>
    <rect style="fill: none; fill-opacity:0; stroke-width: 2; stroke: #000000" x="1026" y="166" width="233.3" height="52"/>
    <text style="fill: #000000;text-anchor:start;font-size:12.8;font-family:monospace;font-style:normal;font-weight:normal" x="1029" y="180">+getId(): RowId</text>
    <text style="fill: #000000;text-anchor:start;font-size:12.8;font-family:monospace;font-style:normal;font-weight:normal" x="1029" y="196">+getContainer(): SQLContainer</text>
    <text style="fill: #000000;text-anchor:start;font-size:12.8;font-family:monospace;font-style:normal;font-weight:normal" x="1029" y="212">+isModified(): boolean</text>
  </g>
  <g>
    <polyline style="fill: none; fill-opacity:0; stroke-width: 2; stroke: #000000" points="835.572,243 1142.65,243 1142.65,218 "/>
    <polygon style="fill: #ffffff" points="810.4,243 824.4,238.2 838.4,243 824.4,247.8 "/>
    <polygon style="fill: none; fill-opacity:0; stroke-width: 2; stroke: #000000" points="810.4,243 824.4,238.2 838.4,243 824.4,247.8 "/>
    <text style="fill: #000000;text-anchor:middle;font-size:12.7998;font-family:monospace;font-style:normal;font-weight:normal" x="976.525" y="240"></text>
    <text style="fill: #000000;text-anchor:start;font-size:12.7998;font-family:monospace;font-style:normal;font-weight:normal" x="842.4" y="240"></text>
    <text style="fill: #000000;text-anchor:start;font-size:12.7998;font-family:monospace;font-style:normal;font-weight:normal" x="1146.65" y="230">0..*</text>
  </g>
  <g>
    <rect style="fill: #ffffff" x="947.002" y="-33" width="110.1" height="44"/>
    <rect style="fill: none; fill-opacity:0; stroke-width: 2; stroke: #000000" x="947.002" y="-33" width="110.1" height="44"/>
    <text style="fill: #000000;text-anchor:middle;font-size:12.8;font-family:monospace;font-style:normal;font-weight:normal" x="1002.05" y="-17">&lt;&lt;interface&gt;&gt;</text>
    <text style="fill: #000000;text-anchor:middle;font-size:16;font-family:sanserif;font-style:normal;font-weight:700" x="1002.05" y="2">Item</text>
  </g>
  <g>
    <polyline style="fill: none; fill-opacity:0; stroke-width: 2; stroke-dasharray: 8; stroke: #000000" points="1002.05,29.2361 1002.05,87 1142.65,87 1142.65,138 "/>
    <polygon style="fill: #ffffff" points="1010.05,29.2361 1002.05,13.2361 994.052,29.2361 "/>
    <polygon style="fill: none; fill-opacity:0; stroke-width: 2; stroke: #000000" points="1010.05,29.2361 1002.05,13.2361 994.052,29.2361 "/>
  </g>
  <g>
    <rect style="fill: #ffffff" x="902.002" y="164" width="65.5" height="28"/>
    <rect style="fill: none; fill-opacity:0; stroke-width: 2; stroke: #000000" x="902.002" y="164" width="65.5" height="28"/>
    <text style="fill: #000000;text-anchor:middle;font-size:16;font-family:sanserif;font-style:normal;font-weight:700" x="934.752" y="183">RowId</text>
  </g>
  <g>
    <polyline style="fill: none; fill-opacity:0; stroke-width: 2; stroke: #000000" points="999.838,178 992,178 992,178 967.502,178 "/>
    <polygon style="fill: #ffffff" points="1025.01,178 1011.01,182.8 997.01,178 1011.01,173.2 "/>
    <polygon style="fill: none; fill-opacity:0; stroke-width: 2; stroke: #000000" points="1025.01,178 1011.01,182.8 997.01,178 1011.01,173.2 "/>
    <text style="fill: #000000;text-anchor:middle;font-size:12.7998;font-family:monospace;font-style:normal;font-weight:normal" x="992" y="175"></text>
    <text style="fill: #000000;text-anchor:end;font-size:12.7998;font-family:monospace;font-style:normal;font-weight:normal" x="993.01" y="175"></text>
    <text style="fill: #000000;text-anchor:start;font-size:12.7998;font-family:monospace;font-style:normal;font-weight:normal" x="971.502" y="175">1</text>
  </g>
  <g>
    <rect style="fill: #ffffff" x="1077" y="8" width="233.3" height="28"/>
    <rect style="fill: none; fill-opacity:0; stroke-width: 2; stroke: #000000" x="1077" y="8" width="233.3" height="28"/>
    <text style="fill: #000000;text-anchor:middle;font-size:16;font-family:sanserif;font-style:normal;font-weight:700" x="1193.65" y="27">ColumnProperty</text>
    <rect style="fill: #ffffff" x="1077" y="36" width="233.3" height="36"/>
    <rect style="fill: none; fill-opacity:0; stroke-width: 2; stroke: #000000" x="1077" y="36" width="233.3" height="36"/>
    <text style="fill: #000000;text-anchor:start;font-size:12.8;font-family:monospace;font-style:normal;font-weight:normal" x="1080" y="50">-allowReadOnlyChange: boolean</text>
    <text style="fill: #000000;text-anchor:start;font-size:12.8;font-family:monospace;font-style:normal;font-weight:normal" x="1080" y="66">-owner: RowItem</text>
  </g>
  <g>
    <rect style="fill: #ffffff" x="1137.6" y="-74.2" width="110.1" height="44"/>
    <rect style="fill: none; fill-opacity:0; stroke-width: 2; stroke: #000000" x="1137.6" y="-74.2" width="110.1" height="44"/>
    <text style="fill: #000000;text-anchor:middle;font-size:12.8;font-family:monospace;font-style:normal;font-weight:normal" x="1192.65" y="-58.2">&lt;&lt;interface&gt;&gt;</text>
    <text style="fill: #000000;text-anchor:middle;font-size:16;font-family:sanserif;font-style:normal;font-weight:700" x="1192.65" y="-39.2">Property</text>
  </g>
  <g>
    <polyline style="fill: none; fill-opacity:0; stroke-width: 2; stroke-dasharray: 8; stroke: #000000" points="1192.65,-10.9583 1192.65,-11.1012 1193.65,-11.1012 1193.65,6.99194 "/>
    <polygon style="fill: #ffffff" points="1200.65,-10.9583 1192.65,-26.9583 1184.65,-10.9583 "/>
    <polygon style="fill: none; fill-opacity:0; stroke-width: 2; stroke: #000000" points="1200.65,-10.9583 1192.65,-26.9583 1184.65,-10.9583 "/>
  </g>
  <g>
    <polyline style="fill: none; fill-opacity:0; stroke-width: 2; stroke: #000000" points="1284.47,152 1299,152 1299,104 1193.65,104 1193.65,72 "/>
    <polygon style="fill: #ffffff" points="1259.3,152 1273.3,147.2 1287.3,152 1273.3,156.8 "/>
    <polygon style="fill: none; fill-opacity:0; stroke-width: 2; stroke: #000000" points="1259.3,152 1273.3,147.2 1287.3,152 1273.3,156.8 "/>
    <text style="fill: #000000;text-anchor:middle;font-size:12.7998;font-family:monospace;font-style:normal;font-weight:normal" x="1246.33" y="101"></text>
    <text style="fill: #000000;text-anchor:start;font-size:12.7998;font-family:monospace;font-style:normal;font-weight:normal" x="1291.3" y="149"></text>
    <text style="fill: #000000;text-anchor:start;font-size:12.7998;font-family:monospace;font-style:normal;font-weight:normal" x="1197.65" y="84">1..*</text>
  </g>
  <g>
    <rect style="fill: #ffffff" x="392.658" y="343" width="525.9" height="44"/>
    <rect style="fill: none; fill-opacity:0; stroke-width: 2; stroke: #000000" x="392.658" y="343" width="525.9" height="44"/>
    <text style="fill: #000000;text-anchor:middle;font-size:12.8;font-family:monospace;font-style:normal;font-weight:normal" x="655.608" y="359">&lt;&lt;interface&gt;&gt;</text>
    <text style="fill: #000000;text-anchor:middle;font-size:16;font-family:sanserif;font-style:normal;font-weight:700" x="655.608" y="378">QueryDelegate</text>
    <rect style="fill: #ffffff" x="392.658" y="387" width="525.9" height="212"/>
    <rect style="fill: none; fill-opacity:0; stroke-width: 2; stroke: #000000" x="392.658" y="387" width="525.9" height="212"/>
    <text style="fill: #000000;text-anchor:start;font-size:12.8;font-family:monospace;font-style:normal;font-weight:normal" x="395.658" y="401">+getCount(): int</text>
    <text style="fill: #000000;text-anchor:start;font-size:12.8;font-family:monospace;font-style:normal;font-weight:normal" x="395.658" y="417">+getResults(offset:int,pagelength:int): ResultSet</text>
    <text style="fill: #000000;text-anchor:start;font-size:12.8;font-family:monospace;font-style:normal;font-weight:normal" x="395.658" y="433">+setFilters(filters:List&lt;Filter&gt;): void</text>
    <text style="fill: #000000;text-anchor:start;font-size:12.8;font-family:monospace;font-style:normal;font-weight:normal" x="395.658" y="449">+setOrderBy(orderBys:List&lt;OrderBy&gt;): void</text>
    <text style="fill: #000000;text-anchor:start;font-size:12.8;font-family:monospace;font-style:normal;font-weight:normal" x="395.658" y="465">+storeRow(row:RowItem): int</text>
    <text style="fill: #000000;text-anchor:start;font-size:12.8;font-family:monospace;font-style:normal;font-weight:normal" x="395.658" y="481">+beginTransaction(): void</text>
    <text style="fill: #000000;text-anchor:start;font-size:12.8;font-family:monospace;font-style:normal;font-weight:normal" x="395.658" y="497">+rollback(): void</text>
    <text style="fill: #000000;text-anchor:start;font-size:12.8;font-family:monospace;font-style:normal;font-weight:normal" x="395.658" y="513">+commit(): void</text>
    <text style="fill: #000000;text-anchor:start;font-size:12.8;font-family:monospace;font-style:normal;font-weight:normal" x="395.658" y="529">+getPrimaryKeyColumns(): List&lt;String&gt;</text>
    <text style="fill: #000000;text-anchor:start;font-size:12.8;font-family:monospace;font-style:normal;font-weight:normal" x="395.658" y="545">+implementationRespectsPagingLimits(): boolean</text>
    <text style="fill: #000000;text-anchor:start;font-size:12.8;font-family:monospace;font-style:normal;font-weight:normal" x="395.658" y="561">+setFilters(filters:List&lt;Filter&gt;,filteringMode:FilteringMode): void</text>
    <text style="fill: #000000;text-anchor:start;font-size:12.8;font-family:monospace;font-style:normal;font-weight:normal" x="395.658" y="577">+removeRow(row:RowItem): boolean</text>
    <text style="fill: #000000;text-anchor:start;font-size:12.8;font-family:monospace;font-style:normal;font-weight:normal" x="395.658" y="593">+containsRowWithKey(keys:Object...): boolean</text>
  </g>
  <g>
    <polyline style="fill: none; fill-opacity:0; stroke-width: 2; stroke: #000000" points="374.828,317 367,317 367,429 392.658,429 "/>
    <polygon style="fill: #ffffff" points="400,317 386,321.8 372,317 386,312.2 "/>
    <polygon style="fill: none; fill-opacity:0; stroke-width: 2; stroke: #000000" points="400,317 386,321.8 372,317 386,312.2 "/>
    <text style="fill: #000000;text-anchor:start;font-size:12.7998;font-family:monospace;font-style:normal;font-weight:normal" x="369" y="370"></text>
    <text style="fill: #000000;text-anchor:end;font-size:12.7998;font-family:monospace;font-style:normal;font-weight:normal" x="368" y="314"></text>
    <text style="fill: #000000;text-anchor:end;font-size:12.7998;font-family:monospace;font-style:normal;font-weight:normal" x="388.658" y="426">1</text>
  </g>
  <g>
    <rect style="fill: #ffffff" x="112.658" y="804" width="395" height="28"/>
    <rect style="fill: none; fill-opacity:0; stroke-width: 2; stroke: #000000" x="112.658" y="804" width="395" height="28"/>
    <text style="fill: #000000;text-anchor:middle;font-size:16;font-family:sanserif;font-style:normal;font-weight:700" x="310.158" y="823">FreeformQuery</text>
    <rect style="fill: #ffffff" x="112.658" y="832" width="395" height="20"/>
    <rect style="fill: none; fill-opacity:0; stroke-width: 2; stroke: #000000" x="112.658" y="832" width="395" height="20"/>
    <text style="fill: #000000;text-anchor:start;font-size:12.8;font-family:monospace;font-style:normal;font-weight:normal" x="115.658" y="846">-queryString: String</text>
    <rect style="fill: #ffffff" x="112.658" y="852" width="395" height="20"/>
    <rect style="fill: none; fill-opacity:0; stroke-width: 2; stroke: #000000" x="112.658" y="852" width="395" height="20"/>
    <text style="fill: #000000;text-anchor:start;font-size:12.8;font-family:monospace;font-style:normal;font-weight:normal" x="115.658" y="866">+setDelegate(delegate:FreeFormQueryDelegate): void</text>
  </g>
  <g>
    <rect style="fill: #ffffff" x="1063.26" y="807.8" width="217.9" height="28"/>
    <rect style="fill: none; fill-opacity:0; stroke-width: 2; stroke: #000000" x="1063.26" y="807.8" width="217.9" height="28"/>
    <text style="fill: #000000;text-anchor:middle;font-size:16;font-family:sanserif;font-style:normal;font-weight:700" x="1172.21" y="826.8">TableQuery</text>
    <rect style="fill: #ffffff" x="1063.26" y="835.8" width="217.9" height="36"/>
    <rect style="fill: none; fill-opacity:0; stroke-width: 2; stroke: #000000" x="1063.26" y="835.8" width="217.9" height="36"/>
    <text style="fill: #000000;text-anchor:start;font-size:12.8;font-family:monospace;font-style:normal;font-weight:normal" x="1066.26" y="849.8">-tableName: String</text>
    <text style="fill: #000000;text-anchor:start;font-size:12.8;font-family:monospace;font-style:normal;font-weight:normal" x="1066.26" y="865.8">-sqlGenerator: SQLGenerator</text>
  </g>
  <g>
    <polyline style="fill: none; fill-opacity:0; stroke-width: 2; stroke-dasharray: 8; stroke: #000000" points="655.608,618.244 655.608,818 507.658,818 "/>
    <polygon style="fill: #ffffff" points="663.608,618.244 655.608,602.244 647.608,618.244 "/>
    <polygon style="fill: none; fill-opacity:0; stroke-width: 2; stroke: #000000" points="663.608,618.244 655.608,602.244 647.608,618.244 "/>
  </g>
  <g>
    <polyline style="fill: none; fill-opacity:0; stroke-width: 2; stroke-dasharray: 8; stroke: #000000" points="655.608,617.236 655.608,845.8 1063.26,845.8 "/>
    <polygon style="fill: #ffffff" points="663.608,617.236 655.608,601.236 647.608,617.236 "/>
    <polygon style="fill: none; fill-opacity:0; stroke-width: 2; stroke: #000000" points="663.608,617.236 655.608,601.236 647.608,617.236 "/>
  </g>
  <g>
    <rect style="fill: #ffffff" x="556.658" y="954.5" width="325.7" height="44"/>
    <rect style="fill: none; fill-opacity:0; stroke-width: 2; stroke: #000000" x="556.658" y="954.5" width="325.7" height="44"/>
    <text style="fill: #000000;text-anchor:middle;font-size:12.8;font-family:monospace;font-style:normal;font-weight:normal" x="719.508" y="970.5">&lt;&lt;interface&gt;&gt;</text>
    <text style="fill: #000000;text-anchor:middle;font-size:16;font-family:sanserif;font-style:normal;font-weight:700" x="719.508" y="989.5">JDBCConnectionPool</text>
    <rect style="fill: #ffffff" x="556.658" y="998.5" width="325.7" height="52"/>
    <rect style="fill: none; fill-opacity:0; stroke-width: 2; stroke: #000000" x="556.658" y="998.5" width="325.7" height="52"/>
    <text style="fill: #000000;text-anchor:start;font-size:12.8;font-family:monospace;font-style:normal;font-weight:normal" x="559.658" y="1012.5">+reserveConnection(): Connection</text>
    <text style="fill: #000000;text-anchor:start;font-size:12.8;font-family:monospace;font-style:normal;font-weight:normal" x="559.658" y="1028.5">+releaseConnection(conn:Connection): void</text>
    <text style="fill: #000000;text-anchor:start;font-size:12.8;font-family:monospace;font-style:normal;font-weight:normal" x="559.658" y="1044.5">+destroy(): void</text>
  </g>
  <g>
    <polyline style="fill: none; fill-opacity:0; stroke-width: 2; stroke: #000000" points="310.158,897.172 310.158,913.25 719.508,913.25 719.508,954.5 "/>
    <polygon style="fill: #ffffff" points="310.158,872 314.958,886 310.158,900 305.358,886 "/>
    <polygon style="fill: none; fill-opacity:0; stroke-width: 2; stroke: #000000" points="310.158,872 314.958,886 310.158,900 305.358,886 "/>
    <text style="fill: #000000;text-anchor:middle;font-size:12.7998;font-family:monospace;font-style:normal;font-weight:normal" x="514.833" y="910.25"></text>
    <text style="fill: #000000;text-anchor:start;font-size:12.7998;font-family:monospace;font-style:normal;font-weight:normal" x="321.158" y="884"></text>
    <text style="fill: #000000;text-anchor:start;font-size:12.7998;font-family:monospace;font-style:normal;font-weight:normal" x="723.508" y="950.5"></text>
  </g>
  <g>
    <polyline style="fill: none; fill-opacity:0; stroke-width: 2; stroke: #000000" points="1172.21,896.972 1172.21,912.647 719.508,912.647 719.508,953.494 "/>
    <polygon style="fill: #ffffff" points="1172.21,871.8 1177.01,885.8 1172.21,899.8 1167.41,885.8 "/>
    <polygon style="fill: none; fill-opacity:0; stroke-width: 2; stroke: #000000" points="1172.21,871.8 1177.01,885.8 1172.21,899.8 1167.41,885.8 "/>
    <text style="fill: #000000;text-anchor:middle;font-size:12.7998;font-family:monospace;font-style:normal;font-weight:normal" x="945.858" y="909.647"></text>
    <text style="fill: #000000;text-anchor:start;font-size:12.7998;font-family:monospace;font-style:normal;font-weight:normal" x="1183.21" y="883.8"></text>
    <text style="fill: #000000;text-anchor:start;font-size:12.7998;font-family:monospace;font-style:normal;font-weight:normal" x="723.508" y="949.494">1</text>
  </g>
  <g>
    <rect style="fill: #ffffff" x="1053.66" y="938.5" width="255.35" height="28"/>
    <rect style="fill: none; fill-opacity:0; stroke-width: 2; stroke: #000000" x="1053.66" y="938.5" width="255.35" height="28"/>
    <text style="fill: #000000;text-anchor:middle;font-size:16;font-family:sanserif;font-style:normal;font-weight:700" x="1181.33" y="957.5">SimpleJDBCConnectionPool</text>
    <rect style="fill: #ffffff" x="1053.66" y="966.5" width="255.35" height="84"/>
    <rect style="fill: none; fill-opacity:0; stroke-width: 2; stroke: #000000" x="1053.66" y="966.5" width="255.35" height="84"/>
    <text style="fill: #000000;text-anchor:start;font-size:12.8;font-family:monospace;font-style:normal;font-weight:normal" x="1056.66" y="980.5">-initialConnections: int</text>
    <text style="fill: #000000;text-anchor:start;font-size:12.8;font-family:monospace;font-style:normal;font-weight:normal" x="1056.66" y="996.5">-maxConnections: int</text>
    <text style="fill: #000000;text-anchor:start;font-size:12.8;font-family:monospace;font-style:normal;font-weight:normal" x="1056.66" y="1012.5">-connectionUri: String</text>
    <text style="fill: #000000;text-anchor:start;font-size:12.8;font-family:monospace;font-style:normal;font-weight:normal" x="1056.66" y="1028.5">-userName: String</text>
    <text style="fill: #000000;text-anchor:start;font-size:12.8;font-family:monospace;font-style:normal;font-weight:normal" x="1056.66" y="1044.5">-password: String</text>
  </g>
  <g>
    <polyline style="fill: none; fill-opacity:0; stroke-width: 2; stroke-dasharray: 8; stroke: #000000" points="900.594,1008.5 1053.66,1008.5 1053.66,1008.5 "/>
    <polygon style="fill: #ffffff" points="900.594,1000.5 884.594,1008.5 900.594,1016.5 "/>
    <polygon style="fill: none; fill-opacity:0; stroke-width: 2; stroke: #000000" points="900.594,1000.5 884.594,1008.5 900.594,1016.5 "/>
  </g>
  <g>
    <rect style="fill: #ffffff" x="939.658" y="386.5" width="464.3" height="44"/>
    <rect style="fill: none; fill-opacity:0; stroke-width: 2; stroke: #000000" x="939.658" y="386.5" width="464.3" height="44"/>
    <text style="fill: #000000;text-anchor:middle;font-size:12.8;font-family:monospace;font-style:normal;font-weight:normal" x="1171.81" y="402.5">&lt;&lt;interface&gt;&gt;</text>
    <text style="fill: #000000;text-anchor:middle;font-size:16;font-family:sanserif;font-style:normal;font-weight:700" x="1171.81" y="421.5">SQLGenerator</text>
    <rect style="fill: #ffffff" x="939.658" y="430.5" width="464.3" height="196"/>
    <rect style="fill: none; fill-opacity:0; stroke-width: 2; stroke: #000000" x="939.658" y="430.5" width="464.3" height="196"/>
    <text style="fill: #000000;text-anchor:start;font-size:12.8;font-family:monospace;font-style:normal;font-weight:normal" x="942.658" y="444.5">+generateSelectQuery(tableName:String,filters:List&lt;Filter&gt;,</text>
    <text style="fill: #000000;text-anchor:start;font-size:12.8;font-family:monospace;font-style:normal;font-weight:normal" x="942.658" y="460.5">                     orderBys:List&lt;OrderBy&gt;,</text>
    <text style="fill: #000000;text-anchor:start;font-size:12.8;font-family:monospace;font-style:normal;font-weight:normal" x="942.658" y="476.5">                     offset:int,pageLength:int,</text>
    <text style="fill: #000000;text-anchor:start;font-size:12.8;font-family:monospace;font-style:normal;font-weight:normal" x="942.658" y="492.5">                     toSelect:String): String</text>
    <text style="fill: #000000;text-anchor:start;font-size:12.8;font-family:monospace;font-style:normal;font-weight:normal" x="942.658" y="508.5">+generateSelectQuery(tableName:String,filters:List&lt;Filter&gt;,</text>
    <text style="fill: #000000;text-anchor:start;font-size:12.8;font-family:monospace;font-style:normal;font-weight:normal" x="942.658" y="524.5">                     filterMode:FilteringMode,</text>
    <text style="fill: #000000;text-anchor:start;font-size:12.8;font-family:monospace;font-style:normal;font-weight:normal" x="942.658" y="540.5">                     orderBys:List&lt;OrderBy&gt;,</text>
    <text style="fill: #000000;text-anchor:start;font-size:12.8;font-family:monospace;font-style:normal;font-weight:normal" x="942.658" y="556.5">                     offset:int,pagelength:int,</text>
    <text style="fill: #000000;text-anchor:start;font-size:12.8;font-family:monospace;font-style:normal;font-weight:normal" x="942.658" y="572.5">                     toSelect:int): String</text>
    <text style="fill: #000000;text-anchor:start;font-size:12.8;font-family:monospace;font-style:normal;font-weight:normal" x="942.658" y="588.5">+generateUpdateQuery(tableName:String,item:RowItem): String</text>
    <text style="fill: #000000;text-anchor:start;font-size:12.8;font-family:monospace;font-style:normal;font-weight:normal" x="942.658" y="604.5">+generateInsertQuery(tableName:String,item:RowItem): String</text>
    <text style="fill: #000000;text-anchor:start;font-size:12.8;font-family:monospace;font-style:normal;font-weight:normal" x="942.658" y="620.5">+generateDeleteQuery(tableName:String,item:RowItem): String</text>
  </g>
  <g>
    <polyline style="fill: none; fill-opacity:0; stroke-width: 2; stroke: #000000" points="1172.21,781.636 1172.21,655 1171.81,655 1171.81,626.5 "/>
    <polygon style="fill: #ffffff" points="1172.21,806.808 1167.41,792.808 1172.21,778.808 1177.01,792.808 "/>
    <polygon style="fill: none; fill-opacity:0; stroke-width: 2; stroke: #000000" points="1172.21,806.808 1167.41,792.808 1172.21,778.808 1177.01,792.808 "/>
    <text style="fill: #000000;text-anchor:middle;font-size:12.7998;font-family:monospace;font-style:normal;font-weight:normal" x="1172.01" y="652"></text>
    <text style="fill: #000000;text-anchor:start;font-size:12.7998;font-family:monospace;font-style:normal;font-weight:normal" x="1183.21" y="802.808"></text>
    <text style="fill: #000000;text-anchor:start;font-size:12.7998;font-family:monospace;font-style:normal;font-weight:normal" x="1175.81" y="638.5">1</text>
  </g>
  <g>
    <rect style="fill: #ffffff" x="1070.66" y="318.404" width="203.25" height="28"/>
    <rect style="fill: none; fill-opacity:0; stroke-width: 2; stroke: #000000" x="1070.66" y="318.404" width="203.25" height="28"/>
    <text style="fill: #000000;text-anchor:middle;font-size:16;font-family:sanserif;font-style:normal;font-weight:700" x="1172.28" y="337.404">DefaultSQLGenerator</text>
  </g>
  <g>
    <rect style="fill: #ffffff" x="1231.26" y="250.204" width="164.2" height="28"/>
    <rect style="fill: none; fill-opacity:0; stroke-width: 2; stroke: #000000" x="1231.26" y="250.204" width="164.2" height="28"/>
    <text style="fill: #000000;text-anchor:middle;font-size:16;font-family:sanserif;font-style:normal;font-weight:700" x="1313.36" y="269.204">MSSQLGenerator</text>
  </g>
  <g>
    <rect style="fill: #ffffff" x="953.858" y="250.004" width="159.65" height="28"/>
    <rect style="fill: none; fill-opacity:0; stroke-width: 2; stroke: #000000" x="953.858" y="250.004" width="159.65" height="28"/>
    <text style="fill: #000000;text-anchor:middle;font-size:16;font-family:sanserif;font-style:normal;font-weight:700" x="1033.68" y="269.004">OracleGenerator</text>
  </g>
  <g>
    <polyline style="fill: none; fill-opacity:0; stroke-width: 2; stroke: #000000" points="1292.14,332.404 1313.36,332.404 1313.36,279.211 "/>
    <polygon style="fill: #ffffff" points="1292.14,324.404 1276.14,332.404 1292.14,340.404 "/>
    <polygon style="fill: none; fill-opacity:0; stroke-width: 2; stroke: #000000" points="1292.14,324.404 1276.14,332.404 1292.14,340.404 "/>
  </g>
  <g>
    <polyline style="fill: none; fill-opacity:0; stroke-width: 2; stroke: #000000" points="1052.42,332.404 1033.68,332.404 1033.68,279.011 "/>
    <polygon style="fill: #ffffff" points="1052.42,340.404 1068.42,332.404 1052.42,324.404 "/>
    <polygon style="fill: none; fill-opacity:0; stroke-width: 2; stroke: #000000" points="1052.42,340.404 1068.42,332.404 1052.42,324.404 "/>
  </g>
  <g>
    <rect style="fill: #ffffff" x="146.658" y="639.404" width="325.7" height="44"/>
    <rect style="fill: none; fill-opacity:0; stroke-width: 2; stroke: #000000" x="146.658" y="639.404" width="325.7" height="44"/>
    <text style="fill: #000000;text-anchor:middle;font-size:12.8;font-family:monospace;font-style:normal;font-weight:normal" x="309.508" y="655.404">&lt;&lt;interface&gt;&gt;</text>
    <text style="fill: #000000;text-anchor:middle;font-size:16;font-family:sanserif;font-style:normal;font-weight:700" x="309.508" y="674.404">FreeformQueryDelegate</text>
    <rect style="fill: #ffffff" x="146.658" y="683.404" width="325.7" height="52"/>
    <rect style="fill: none; fill-opacity:0; stroke-width: 2; stroke: #000000" x="146.658" y="683.404" width="325.7" height="52"/>
    <text style="fill: #000000;text-anchor:start;font-size:12.8;font-family:monospace;font-style:normal;font-weight:normal" x="149.658" y="697.404">+setFilters(filters:List&lt;Filter&gt;): void</text>
    <text style="fill: #000000;text-anchor:start;font-size:12.8;font-family:monospace;font-style:normal;font-weight:normal" x="149.658" y="713.404">+setOrderBy(orderBys:List&lt;OrderBy&gt;): void</text>
    <text style="fill: #000000;text-anchor:start;font-size:12.8;font-family:monospace;font-style:normal;font-weight:normal" x="149.658" y="729.404">+storeRow(row:RowItem): int</text>
  </g>
  <g>
    <polyline style="fill: none; fill-opacity:0; stroke-width: 2; stroke-dasharray: 8; stroke: #000000" points="1171.81,368.264 1171.81,366.452 1172.28,366.452 1172.28,346.404 "/>
    <polygon style="fill: #ffffff" points="1163.81,368.264 1171.81,384.264 1179.81,368.264 "/>
    <polygon style="fill: none; fill-opacity:0; stroke-width: 2; stroke: #000000" points="1163.81,368.264 1171.81,384.264 1179.81,368.264 "/>
  </g>
  <g>
    <polyline style="fill: none; fill-opacity:0; stroke-width: 2; stroke: #000000" points="310.158,777.82 310.158,769.701 309.508,769.701 309.508,736.41 "/>
    <polygon style="fill: #ffffff" points="310.158,802.991 305.358,788.991 310.158,774.991 314.958,788.991 "/>
    <polygon style="fill: none; fill-opacity:0; stroke-width: 2; stroke: #000000" points="310.158,802.991 305.358,788.991 310.158,774.991 314.958,788.991 "/>
    <text style="fill: #000000;text-anchor:middle;font-size:12.7998;font-family:monospace;font-style:normal;font-weight:normal" x="309.833" y="766.701"></text>
    <text style="fill: #000000;text-anchor:start;font-size:12.7998;font-family:monospace;font-style:normal;font-weight:normal" x="321.158" y="798.991"></text>
    <text style="fill: #000000;text-anchor:start;font-size:12.7998;font-family:monospace;font-style:normal;font-weight:normal" x="313.508" y="748.41">0..1</text>
  </g>
  <g>
    <polygon style="fill: #ffffff" points="111.658,514.404 294.758,514.404 306.758,526.404 306.758,580.404 111.658,580.404 "/>
    <polygon style="fill: none; fill-opacity:0; stroke-width: 2; stroke: #000000" points="111.658,514.404 294.758,514.404 306.758,526.404 306.758,580.404 111.658,580.404 "/>
    <polyline style="fill: none; fill-opacity:0; stroke-width: 1; stroke: #000000" points="294.758,514.404 294.758,526.404 306.758,526.404 "/>
    <text style="fill: #000000;text-anchor:start;font-size:12.8;font-family:monospace;font-style:normal;font-weight:normal" x="118.658" y="539.304">
      <tspan x="118.658" y="539.304">Implemented by the user</tspan>
      <tspan x="118.658" y="555.304">for sorting, filtering</tspan>
      <tspan x="118.658" y="571.304">and write support</tspan>
    </text>
  </g>
  <line style="fill: none; fill-opacity:0; stroke-width: 2; stroke-dasharray: 4; stroke: #000000" x1="183" y1="581" x2="184" y2="636"/>
  <g>
    <rect style="fill: #ffffff" x="852" y="99.8" width="163.4" height="28"/>
    <rect style="fill: none; fill-opacity:0; stroke-width: 2; stroke: #000000" x="852" y="99.8" width="163.4" height="28"/>
    <text style="fill: #000000;text-anchor:middle;font-size:16;font-family:sanserif;font-style:normal;font-weight:700" x="933.7" y="118.8">TemporaryRowId</text>
  </g>
  <g>
    <polyline style="fill: none; fill-opacity:0; stroke-width: 2; stroke: #000000" points="934.752,145.764 934.752,145.9 933.7,145.9 933.7,127.8 "/>
    <polygon style="fill: #ffffff" points="926.752,145.764 934.752,161.764 942.752,145.764 "/>
    <polygon style="fill: none; fill-opacity:0; stroke-width: 2; stroke: #000000" points="926.752,145.764 934.752,161.764 942.752,145.764 "/>
  </g>
  <g>
    <rect style="fill: #ffffff" x="279" y="-56.2" width="202.5" height="28"/>
    <rect style="fill: none; fill-opacity:0; stroke-width: 2; stroke: #000000" x="279" y="-56.2" width="202.5" height="28"/>
    <text style="fill: #000000;text-anchor:middle;font-size:16;font-family:sanserif;font-style:normal;font-weight:700" x="380.25" y="-37.2">FilteringMode</text>
    <rect style="fill: #ffffff" x="279" y="-28.2" width="202.5" height="36"/>
    <rect style="fill: none; fill-opacity:0; stroke-width: 2; stroke: #000000" x="279" y="-28.2" width="202.5" height="36"/>
    <text style="fill: #000000;text-anchor:start;font-size:12.8;font-family:monospace;font-style:normal;font-weight:normal" x="282" y="-14.2">+FILTERING_MODE_INCLUSIVE</text>
    <text style="fill: #000000;text-anchor:start;font-size:12.8;font-family:monospace;font-style:normal;font-weight:normal" x="282" y="1.8">+FILTERING_MODE_EXCLUSIVE</text>
  </g>
  <g>
    <polyline style="fill: none; fill-opacity:0; stroke-width: 2; stroke: #000000" points="605.2,83.8284 605.2,64 380.25,64 380.25,7.8 "/>
    <polygon style="fill: #ffffff" points="605.2,109 600.4,95 605.2,81 610,95 "/>
    <polygon style="fill: none; fill-opacity:0; stroke-width: 2; stroke: #000000" points="605.2,109 600.4,95 605.2,81 610,95 "/>
    <text style="fill: #000000;text-anchor:middle;font-size:12.7998;font-family:monospace;font-style:normal;font-weight:normal" x="492.725" y="61"></text>
    <text style="fill: #000000;text-anchor:start;font-size:12.7998;font-family:monospace;font-style:normal;font-weight:normal" x="616.2" y="105"></text>
    <text style="fill: #000000;text-anchor:start;font-size:12.7998;font-family:monospace;font-style:normal;font-weight:normal" x="384.25" y="19.8">1</text>
  </g>
  <g>
    <rect style="fill: #ffffff" x="679" y="631.8" width="326" height="44"/>
    <rect style="fill: none; fill-opacity:0; stroke-width: 2; stroke: #000000" x="679" y="631.8" width="326" height="44"/>
    <text style="fill: #000000;text-anchor:middle;font-size:12.8;font-family:monospace;font-style:normal;font-weight:normal" x="842" y="647.8">&lt;&lt;interface&gt;&gt;</text>
    <text style="fill: #000000;text-anchor:middle;font-size:16;font-family:sanserif;font-style:normal;font-weight:700" x="842" y="666.8">QueryDelegate.RowIdChangeEvent</text>
  </g>
  <g>
    <rect style="fill: #ffffff" x="731" y="734.8" width="343.45" height="44"/>
    <rect style="fill: none; fill-opacity:0; stroke-width: 2; stroke: #000000" x="731" y="734.8" width="343.45" height="44"/>
    <text style="fill: #000000;text-anchor:middle;font-size:12.8;font-family:monospace;font-style:normal;font-weight:normal" x="902.725" y="750.8">&lt;&lt;interface&gt;&gt;</text>
    <text style="fill: #000000;text-anchor:middle;font-size:16;font-family:sanserif;font-style:normal;font-weight:700" x="902.725" y="769.8">QueryDelegate.RowIdChangeNotifier</text>
  </g>
  <g>
    <rect style="fill: #ffffff" x="703" y="682.6" width="348.55" height="44"/>
    <rect style="fill: none; fill-opacity:0; stroke-width: 2; stroke: #000000" x="703" y="682.6" width="348.55" height="44"/>
    <text style="fill: #000000;text-anchor:middle;font-size:12.8;font-family:monospace;font-style:normal;font-weight:normal" x="877.275" y="698.6">&lt;&lt;interface&gt;&gt;</text>
    <text style="fill: #000000;text-anchor:middle;font-size:16;font-family:sanserif;font-style:normal;font-weight:700" x="877.275" y="717.6">QueryDelegate.RowIdChangeListener</text>
  </g>
  <g>
    <polyline style="fill: none; fill-opacity:0; stroke-width: 2; stroke: #000000" points="902.724,797.036 902.724,823 1063.26,823 1063.26,821.8 "/>
    <polygon style="fill: #ffffff" points="910.724,797.036 902.724,781.036 894.724,797.036 "/>
    <polygon style="fill: none; fill-opacity:0; stroke-width: 2; stroke: #000000" points="910.724,797.036 902.724,781.036 894.724,797.036 "/>
  </g>
  <g>
    <rect style="fill: #ffffff" x="219" y="994.8" width="189.7" height="28"/>
    <rect style="fill: none; fill-opacity:0; stroke-width: 2; stroke: #000000" x="219" y="994.8" width="189.7" height="28"/>
    <text style="fill: #000000;text-anchor:middle;font-size:16;font-family:sanserif;font-style:normal;font-weight:700" x="313.85" y="1013.8">J2EEConnectionPool</text>
  </g>
  <g>
    <polyline style="fill: none; fill-opacity:0; stroke-width: 2; stroke-dasharray: 8; stroke: #000000" points="538.422,1008.5 482.679,1008.5 482.679,1008.8 408.7,1008.8 "/>
    <polygon style="fill: #ffffff" points="538.422,1016.5 554.422,1008.5 538.422,1000.5 "/>
    <polygon style="fill: none; fill-opacity:0; stroke-width: 2; stroke: #000000" points="538.422,1016.5 554.422,1008.5 538.422,1000.5 "/>
  </g>
</svg>
